<?xml version="1.0" encoding="UTF-8"?>
<svg id="Layer_2" data-name="Layer 2" xmlns="http://www.w3.org/2000/svg" viewBox="0 0 608.7 141.5">
  <defs>
    <style>
      .cls-1 {
        fill: #978c56;
      }

      .cls-2 {
        fill: #40484e;
      }
    </style>
  </defs>
  <g id="Calque_1" data-name="Calque 1">
    <g>
      <path class="cls-2" d="M228.5,92.2c-8.3-4.4-18.2-5.6-27.6-5.6-11.5,0-18.8,2.6-19.5,6.5-.5,2.8,3.1,4.6,15.2,5.2,8.8,.6,14.5,1,17.3,1.4,12.4,1.6,24.6,5.8,22.1,19.6-2.5,14.9-18.5,21.9-40.3,21.9-23.8,0-33.5-7.1-39.1-12.2l9.1-9.2c4.9,3.3,14.1,8.4,31.7,8.4,11.4,0,21.9-2.6,23-8.9,.3-1.9,0-4-4.8-5.3-1.7-.4-6.7-1-21-2-14.7-1-31.4-2.6-28.6-18.2,1.8-10.3,12.6-20.1,37.3-20.1,13,0,23.8,2.7,32.1,8l-6.9,10.5"/>
      <path class="cls-2" d="M285.9,128.1c-16.4,0-26.1-7.7-23.9-20.4,2.2-12.2,15.2-21.2,31.9-21.2,14.5,0,25.9,7.4,23.7,20.4-2.2,12.8-15,21.2-31.7,21.2m9.7-54.9c-24.3,0-45.2,14.2-48.7,33.8-3.7,21,13.6,34.5,37.4,34.5,25.3,0,45.1-14.6,48.5-33.8,3.4-19.8-12.7-34.5-37.2-34.5"/>
      <path class="cls-2" d="M562.6,128c-16.7,0-26.5-7.6-24.3-20.4,2.3-12.6,15.7-21.1,31.7-21.1s21.6,6,24.6,10.1l14.1-4.5c-4.4-7.2-12.7-18.9-37.1-18.9s-45,14.1-48.4,33.7c-3.7,20.8,12.9,34.5,37.2,34.5,8.2,0,15.6-1.2,22-3.5,6.7-2.4,13.9-6.9,20.2-13.3l-12-6.9c-5.7,4.9-13.5,10.3-28,10.3"/>
      <path class="cls-2" d="M409.3,95.8c-.6,3.3-2.4,7.6-11.8,7.6h-21.2c-12.9,0-15.2,8.8-15.8,9.5h-.4l4.5-24.7h35.2c7.5,.1,10.4,2.2,9.5,7.6m14.9,.8c2.3-12.7-5.2-21.5-20.1-21.5h-51.9l-11.4,64.6h11.4c2,0,3.7-1.6,4.1-3.6l3.4-19.5h29.2l13.1,23h17l-13.3-24c9.2-2.3,16.7-8.4,18.5-19"/>
      <path class="cls-2" d="M447.9,75.1l-10.3,58.3c-.6,3.2,1.1,6.3,6.1,6.3h62.6l2.3-13.2h-55l2.3-13.3h33.8c1.9,0,3.7-1.4,4-3.6l1.7-9.6h-37.2l2.1-11.7h50.2c1.7,0,3.6-1.3,4-3.6l1.7-9.6h-68.3"/>
      <path class="cls-1" d="M215.3,9.9c-1.8-5.1-7.2-9.9-14.3-9.9H0C6.8,14.3,25.8,37.3,59.3,38c23.7,.5,33-5.9,40.8-10.1,5.6-3,23.7-11.9,40.7-7.7,0,0,1.3-5.1,6.4-6.3,0,0,.4-.1,.3,.1,0,0-2,6.7-.6,11.1,1.5,4.6,6.1,16,8.2,19.7,.1,.3,0,.4,0,.6l-1.3,2.6c-1.1,.7-2.1,1.3-3.9,1.3-1.1,0-2.1-.4-2.8-1.3-.4-.5-1.6-1.8-2.1-2.3-2.6-2.1-4.9-.8-8.6-2.8-1.4-.7-2.8-2.3-2.8-4.5,0,0-17.5,7.8-20.3,17.7-.1,.7,0,1.5,.7,1.9,2.3,1.5,14.1,3.7,17.7,6,1.4,1,2,3.4,.1,4.8-2,1.4-19.4,13.8-22.9,16.2-3.7,2.5-14.8,1.9-17.8,1.9-.2,0-.4,0-.3-.4,1.3-2.8,3.8-6.3,6.3-7.6,.9,.6,2.9,1.6,3.8,1.8,1.7,.4,4.4,.5,6.3-1.1,1.6-1.3,12.4-10,12.4-10,.1-.1-.3-.3-.9-.4l-26-2.9-16.8,12.2c-11,7.9-10.3,19.9-4.2,27.7,3.7,4.8,14.8,11.1,25.9,3,15.9-11.4,104.1-75.4,112.4-81.5,5.2-3.8,7.8-10.6,5.3-17.8"/>
    </g>
  </g>
</svg>