<svg xmlns="http://www.w3.org/2000/svg" viewBox="0 0 216 142" fill="none">
  <path
    fill="#978C56"
    d="M215.3 9.9C213.5 4.8 208.1 0 201 0H0C6.8 14.3 25.8 37.3 59.3 38C83 38.5 92.3 32.1 100.1 27.9C105.7 24.9 123.8 16 140.8 20.2C140.8 20.2 142.1 15.1 147.2 13.9C147.2 13.9 147.6 13.8 147.5 14C147.5 14 145.5 20.7 146.9 25.1C148.4 29.7 153 41.1 155.1 44.8C155.2 45.1 155.1 45.2 155.1 45.4L153.8 48C152.7 48.7 151.7 49.3 149.9 49.3C148.8 49.3 147.8 48.9 147.1 48C146.7 47.5 145.5 46.2 145 45.7C142.4 43.6 140.1 44.9 136.4 42.9C135 42.2 133.6 40.6 133.6 38.4C133.6 38.4 116.1 46.2 113.3 56.1C113.2 56.8 113.3 57.6 114 58C116.3 59.5 128.1 61.7 131.7 64C133.1 65 133.7 67.4 131.8 68.8C129.8 70.2 112.4 82.6 108.9 85C105.2 87.5 94.1 86.9 91.1 86.9C90.9 86.9 90.7 86.9 90.8 86.5C92.1 83.7 94.6 80.2 97.1 78.9C98 79.5 100 80.5 100.9 80.7C102.6 81.1 105.3 81.2 107.2 79.6C108.8 78.3 119.6 69.6 119.6 69.6C119.7 69.5 119.3 69.3 118.7 69.2L92.7 66.3L75.9 78.5C64.9 86.4 65.6 98.4 71.7 106.2C75.4 111 86.5 117.3 97.6 109.2C113.5 97.8 201.7 33.8 210 27.7C215.2 23.9 217.8 17.1 215.3 9.9Z"
  />
</svg>
